<svg version="1.2" xmlns="http://www.w3.org/2000/svg" viewBox="169 397 417 103" width="417" height="103">
	<defs>
		<linearGradient id="g1" x2="1" gradientUnits="userSpaceOnUse" gradientTransform="matrix(-64.701,2.392,-0.861,-23.288,260.966,497.648)">
			<stop offset="0" stop-color="#ff9800"/>
			<stop offset="1" stop-color="#0073ff"/>
		</linearGradient>
		<linearGradient id="g2" x2="1" gradientUnits="userSpaceOnUse" gradientTransform="matrix(78.916,7.174,-3.651,40.166,168.636,429.3)">
			<stop offset="0" stop-color="#ff9800"/>
			<stop offset="1" stop-color="#0073ff"/>
		</linearGradient>
		<linearGradient id="g3" x2="1" gradientUnits="userSpaceOnUse" gradientTransform="matrix(-13.733,.567,-0.697,-16.87,224.013,438.784)">
			<stop offset="0" stop-color="#ff9800"/>
			<stop offset="1" stop-color="#0073ff"/>
		</linearGradient>
		<linearGradient id="g4" x2="1" gradientUnits="userSpaceOnUse" gradientTransform="matrix(9.045,0,0,15.095,212.395,397.432)">
			<stop offset="0" stop-color="#ff9800"/>
			<stop offset="1" stop-color="#0073ff"/>
		</linearGradient>
		<linearGradient id="g5" x2="1" gradientUnits="userSpaceOnUse" gradientTransform="matrix(-450.241,16.648,-5.992,-162.055,-194.636,895.975)">
			<stop offset="0" stop-color="#ff9800"/>
			<stop offset="1" stop-color="#0073ff"/>
		</linearGradient>
		<linearGradient id="g6" x2="1" gradientUnits="userSpaceOnUse" gradientTransform="matrix(549.16,49.924,-25.41,279.507,-837.141,420.361)">
			<stop offset="0" stop-color="#ff9800"/>
			<stop offset="1" stop-color="#0073ff"/>
		</linearGradient>
		<linearGradient id="g7" x2="1" gradientUnits="userSpaceOnUse" gradientTransform="matrix(-95.562,3.949,-4.851,-117.392,-451.786,486.359)">
			<stop offset="0" stop-color="#ff9800"/>
			<stop offset="1" stop-color="#0073ff"/>
		</linearGradient>
		<linearGradient id="g8" x2="1" gradientUnits="userSpaceOnUse" gradientTransform="matrix(62.94,0,0,105.04,-532.633,198.597)">
			<stop offset="0" stop-color="#ff9800"/>
			<stop offset="1" stop-color="#0073ff"/>
		</linearGradient>
		<linearGradient id="g9" x2="1" gradientUnits="userSpaceOnUse" gradientTransform="matrix(-64.701,2.392,-0.861,-23.288,1407.966,624.551)">
			<stop offset="0" stop-color="#ff9800"/>
			<stop offset="1" stop-color="#0073ff"/>
		</linearGradient>
		<linearGradient id="g10" x2="1" gradientUnits="userSpaceOnUse" gradientTransform="matrix(78.916,7.174,-3.651,40.166,1315.636,556.203)">
			<stop offset="0" stop-color="#ff9800"/>
			<stop offset="1" stop-color="#0073ff"/>
		</linearGradient>
		<linearGradient id="g11" x2="1" gradientUnits="userSpaceOnUse" gradientTransform="matrix(-13.733,.567,-0.697,-16.87,1371.013,565.687)">
			<stop offset="0" stop-color="#ff9800"/>
			<stop offset="1" stop-color="#0073ff"/>
		</linearGradient>
		<linearGradient id="g12" x2="1" gradientUnits="userSpaceOnUse" gradientTransform="matrix(9.045,0,0,15.095,1359.395,524.335)">
			<stop offset="0" stop-color="#ff9800"/>
			<stop offset="1" stop-color="#0073ff"/>
		</linearGradient>
	</defs>
	<style>
		.s0 { fill: #111827 } 
		.s1 { fill: url(#g1) } 
		.s2 { fill: url(#g2) } 
		.s3 { fill: #0073ff } 
		.s4 { fill: url(#g3) } 
		.s5 { fill: url(#g4) } 
		.s6 { fill: url(#g5) } 
		.s7 { fill: url(#g6) } 
		.s8 { fill: url(#g7) } 
		.s9 { fill: url(#g8) } 
		.s10 { fill: #ff9800 } 
		.s11 { fill: #ffffff } 
		.s12 { fill: url(#g9) } 
		.s13 { fill: url(#g10) } 
		.s14 { fill: url(#g11) } 
		.s15 { fill: url(#g12) } 
	</style>
	<g id="Layer 1">
		<g id="&lt;Group&gt;">
			<path id="&lt;Compound Path&gt;" class="s0" d="m341.22 470.86v11.37h-44.7v-67.92h13.02v56.55z"/>
			<path id="&lt;Compound Path&gt;" class="s0" d="m355.79 426.65q-1.27 0.49-2.43 0.49-1.85 0-3.45-1.02-1.6-1.02-2.38-2.87-1.07-2.43-0.05-4.81 1.02-2.38 3.45-3.45 1.26-0.48 2.43-0.48 1.94 0 3.5 1.02 1.55 1.02 2.33 2.86 1.07 2.43 0.05 4.86-1.02 2.43-3.45 3.4zm-8.75 55.58v-49.17h12.44v49.17z"/>
			<path id="&lt;Compound Path&gt;" class="s0" d="m401.85 426.65q-1.27 0.49-2.43 0.49-1.85 0-3.45-1.02-1.6-1.02-2.38-2.87-1.07-2.43-0.05-4.81 1.02-2.38 3.45-3.45 1.26-0.48 2.43-0.48 1.94 0 3.5 1.02 1.55 1.02 2.33 2.86 1.07 2.43 0.05 4.86-1.02 2.43-3.45 3.4zm-8.75 55.58v-49.17h12.44v49.17z"/>
			<path id="&lt;Compound Path&gt;" class="s0" d="m463.74 414.31v43.53q0 5.15-1.94 9.67-1.94 4.52-5.34 7.92-3.41 3.4-7.92 5.35-4.52 1.94-9.67 1.94-5.15 0-9.72-1.94-4.57-1.95-7.97-5.35-3.4-3.4-5.34-7.92-1.94-4.52-1.94-9.67 0-6.31 1.94-11.03 1.94-4.71 5.05-7.82 3.11-3.11 7.14-4.66 4.04-1.56 8.12-1.56 4.27 0 8.21 1.61 3.93 1.6 6.95 4.81v-24.88zm-24.88 57.04q2.53 0 4.81-1.07 2.28-1.07 3.99-2.87 1.69-1.79 2.67-4.27 0.97-2.48 0.97-5.3 0-2.81-0.97-5.29-0.98-2.48-2.67-4.33-1.71-1.84-3.99-2.91-2.28-1.07-4.81-1.07-2.62 0-4.91 1.07-2.28 1.07-3.98 2.91-1.7 1.85-2.67 4.33-0.97 2.48-0.97 5.29 0 2.82 0.97 5.3 0.97 2.48 2.67 4.27 1.7 1.8 3.98 2.87 2.29 1.07 4.91 1.07z"/>
			<path id="&lt;Compound Path&gt;" class="s0" d="m483.47 460.37q0.49 2.72 1.7 4.71 1.21 1.99 2.96 3.31 1.75 1.31 3.89 1.94 2.14 0.63 4.28 0.63 3.69 0 7.04-1.85 3.35-1.84 4.81-5.53l11.86 1.65q-1.17 4.47-3.55 7.72-2.38 3.26-5.49 5.44-3.11 2.19-6.85 3.26-3.74 1.07-7.53 1.07-4.76 0-9.38-1.6-4.61-1.61-8.26-4.81-3.64-3.21-5.88-7.88-2.23-4.66-2.23-10.78 0-6.12 2.09-10.74 2.09-4.61 5.54-7.77 3.44-3.16 7.87-4.76 4.42-1.61 8.98-1.61 4.57 0 8.9 1.61 4.32 1.6 7.77 4.81 3.45 3.2 5.64 8.11 2.18 4.91 2.38 11.61v1.46zm23.03-9.23q-1.46-3.6-4.47-5.39-3.02-1.8-6.42-1.8-3.4 0-6.41 1.8-3.01 1.79-4.67 5.39z"/>
			<path id="&lt;Compound Path&gt;" class="s0" d="m575.88 457.65v21.28q0 1.55-1.07 2.62-1.07 1.07-2.63 1.07-1.65 0-2.81-1.46l-4.96-6.21q-3.01 3.78-7.24 5.73-4.22 1.94-8.89 1.94-4.08 0-8.11-1.55-4.04-1.56-7.14-4.67-3.11-3.11-5.06-7.82-1.94-4.71-1.94-11.03 0-5.15 1.94-9.72 1.95-4.56 5.35-7.91 3.4-3.36 7.97-5.3 4.56-1.94 9.71-1.94 5.15 0 9.67 1.94 4.52 1.94 7.92 5.34 3.4 3.41 5.34 7.92 1.95 4.52 1.95 9.77zm-12.44-0.1q0-2.82-0.97-5.29-0.97-2.48-2.67-4.33-1.7-1.84-3.99-2.91-2.28-1.07-4.81-1.07-2.62 0-4.91 1.07-2.28 1.07-3.98 2.91-1.7 1.85-2.67 4.33-0.97 2.47-0.97 5.29 0 2.82 0.97 5.3 0.97 2.48 2.67 4.32 1.7 1.85 3.98 2.92 2.29 1.07 4.91 1.07 2.53 0 4.81-1.07 2.29-1.07 3.94-2.87 1.65-1.8 2.67-4.28 1.02-2.47 1.02-5.29z"/>
			<g id="&lt;Group&gt;">
				<g id="&lt;Group&gt;">
					<path id="&lt;Path&gt;" class="s0" d="m372.39 482.23h-0.84c-0.67 0-1.21-0.54-1.21-1.2v-8.31c0-0.67 0.54-1.21 1.21-1.21h0.84c0.67 0 1.21 0.54 1.21 1.21v8.31c0 0.66-0.54 1.2-1.21 1.2z"/>
					<path id="&lt;Path&gt;" class="s0" d="m382.29 467.74v12.87c0 0.89-0.73 1.62-1.63 1.62-0.9 0-1.63-0.73-1.63-1.62v-9.62c0-0.89-0.73-1.62-1.63-1.62h-1.16c-3.26 0-5.9-2.65-5.9-5.91v-8.48c0-0.9 0.72-1.63 1.62-1.63 0.9 0 1.63 0.73 1.63 1.63v8.49c0 1.46 1.18 2.64 2.64 2.64h4.43c0.9 0 1.63 0.73 1.63 1.63z"/>
					<path id="&lt;Path&gt;" class="s0" d="m381.06 461.36h-0.85c-0.66 0-1.2-0.54-1.2-1.21v-13.6c0-0.66 0.54-1.2 1.2-1.2h0.85c0.66 0 1.2 0.54 1.2 1.2v13.6c0 0.67-0.54 1.21-1.2 1.21z"/>
				</g>
				<g id="&lt;Group&gt;">
					<path id="&lt;Path&gt;" class="s0" d="m380.23 414.31h0.84c0.67 0 1.21 0.54 1.21 1.21v8.31c0 0.66-0.54 1.2-1.21 1.2h-0.84c-0.66 0-1.2-0.54-1.2-1.2v-8.31c0-0.67 0.54-1.21 1.2-1.21z"/>
					<path id="&lt;Path&gt;" class="s0" d="m370.34 424.51v-8.57c0-0.9 0.72-1.63 1.62-1.63 0.9 0 1.63 0.73 1.63 1.63v8.61c0 1.45 1.18 2.63 2.63 2.63h4.44c0.9 0 1.63 0.73 1.63 1.62v12.77c0 0.89-0.73 1.62-1.63 1.62-0.9 0-1.63-0.73-1.63-1.62v-9.51c0-0.9-0.73-1.63-1.63-1.63h-1.14c-3.27 0-5.92-2.65-5.92-5.92z"/>
					<path id="&lt;Path&gt;" class="s0" d="m371.57 435.19h0.84c0.66 0 1.2 0.54 1.2 1.2v13.6c0 0.67-0.54 1.21-1.2 1.21h-0.84c-0.67 0-1.21-0.54-1.21-1.21v-13.6c0-0.66 0.54-1.2 1.21-1.2z"/>
				</g>
			</g>
			<g id="&lt;Group&gt;">
				<g id="&lt;Group&gt;">
					<path id="&lt;Path&gt;" class="s1" d="m261.67 467.79c0.01 1.27-0.3 31.32-40.04 31.32h-13.44c-39.68-0.47-39.13-31.32-39.13-31.32 4.09-0.01 8.44 0.51 12.39 1.51 8.23 2.11 18.8 7.31 24.98 13.49 0.89 0.89 1.59 2.02 2.5 2.87 0.58-3.37 0.19-7.26-0.87-10.46-1.24-3.82-3.67-6.92-6.69-9.42 0 0 17.75 3.24 20.16 16.43q-0.01 1.78 0.27 3.45 0.51-0.49 0.96-1.04l0.04-0.05c0.49-0.6 0.95-1.23 1.5-1.78q0.49-0.49 1.04-0.99c6.27-5.73 16.16-10.5 23.95-12.5 3.94-1 8.3-1.52 12.38-1.51z"/>
					<path id="&lt;Path&gt;" class="s2" d="m261.89 445.33c-1.53 8.93-7.97 10.26-15.39 12.39l-4.71 1.46c-7.92 2.65-16.37 7.61-19.13 16.02-0.71 2.14-1.12 4.62-1.13 7.01-2.41-13.19-20.16-16.43-20.16-16.43-3.63-3.02-8.11-5.15-12.43-6.6l-4.71-1.46c-7.41-2.13-13.85-3.46-15.38-12.39-0.61-3.54 0.28-7.1 0.62-10.62l4.89-0.06c12.39-0.01 25.15 5.46 33.92 14.2 3.48 3.47 5.29 6.07 7.08 10.52h0.01c1.79-4.45 3.61-7.05 7.08-10.52 8.77-8.74 21.53-14.21 33.93-14.2l4.88 0.06c0.34 3.52 1.23 7.08 0.63 10.62z"/>
				</g>
				<g id="&lt;Group&gt;">
					<g id="&lt;Group&gt;">
						<g id="&lt;Group&gt;">
							<path id="&lt;Compound Path&gt;" class="s3" d="m232.71 413.64c-0.32-0.68-1-1.11-1.76-1.11h-12.61l3.04-12.71c0.22-0.89-0.19-1.76-1.01-2.17-0.82-0.42-1.77-0.22-2.36 0.47l-4.14 4.91q-0.12 0.17-0.28 0.34l-0.7 0.83-0.04 0.05-12.95 15.38c-0.5 0.58-0.61 1.38-0.29 2.06 0.33 0.7 1.01 1.13 1.77 1.13h12.15l-3.22 13.45c-0.22 0.9 0.19 1.78 1.01 2.19q0.44 0.22 0.89 0.21c0.55 0 1.09-0.24 1.48-0.69l5.9-7.01 0.07-0.1 2.06-2.44q0-0.01 0.02-0.02l10.69-12.69c0.49-0.58 0.61-1.38 0.28-2.08z"/>
						</g>
					</g>
					<path id="&lt;Path&gt;" class="s4" d="m221.74 428.41q-0.02 0.01-0.02 0.02l-2.06 2.44-0.07 0.1-5.9 7.01c-0.39 0.45-0.93 0.69-1.48 0.69q-0.45 0.01-0.89-0.21c-0.82-0.41-1.23-1.29-1.01-2.19l3.22-13.45c0 0 14.57-1.97 8.21 5.59z"/>
					<path id="&lt;Path&gt;" class="s5" d="m221.38 399.82l-3.04 12.71c0 0-9.16-3.93-4.75-9.16q0.16-0.17 0.28-0.34l4.14-4.91c0.59-0.69 1.54-0.89 2.36-0.47 0.82 0.41 1.23 1.28 1.01 2.17z"/>
				</g>
			</g>
		</g>
		<g id="&lt;Group&gt;">
			<g id="&lt;Group&gt;">
				<g id="&lt;Group&gt;">
					<path id="&lt;Path&gt;" class="s6" d="m-189.74 688.18c0.08 8.89-2.06 217.98-278.61 217.98h-93.55c-276.15-3.25-272.26-217.98-272.26-217.98 28.4-0.08 58.72 3.57 86.17 10.56 57.3 14.68 130.86 50.86 173.87 93.87 6.19 6.19 11.03 14.05 17.37 19.92 4.05-23.41 1.35-50.47-6.03-72.77-8.65-26.58-25.55-48.17-46.58-65.54 0 0 123.56 22.53 140.3 114.34 0 8.18 0.55 16.27 1.9 23.97 2.38-2.22 4.53-4.68 6.67-7.22l0.24-0.32c3.41-4.21 6.66-8.57 10.47-12.38 2.3-2.3 4.68-4.6 7.22-6.9 43.65-39.92 112.45-73.09 166.65-86.97 27.45-6.99 57.76-10.64 86.17-10.56z"/>
					<path id="&lt;Path&gt;" class="s7" d="m-188.23 531.94c-10.63 62.13-55.47 71.33-107.05 86.17l-32.77 10.16c-55.15 18.49-113.95 53.01-133.15 111.49-4.92 14.92-7.78 32.14-7.86 48.8-16.74-91.81-140.3-114.34-140.3-114.34-25.23-21.03-56.42-35.87-86.49-45.95l-32.77-10.16c-51.58-14.84-96.42-24.04-107.05-86.17-4.21-24.68 1.98-49.44 4.36-73.96l33.97-0.4c86.25-0.08 175.05 38.01 236.07 98.8 24.2 24.2 36.82 42.29 49.28 73.24h0.08c12.46-30.95 25.07-49.04 49.28-73.24 61.02-60.79 149.82-98.88 236.07-98.8l33.97 0.4c2.38 24.52 8.57 49.28 4.36 73.96z"/>
				</g>
				<g id="&lt;Group&gt;">
					<g id="&lt;Group&gt;">
						<g id="&lt;Group&gt;">
							<path id="&lt;Compound Path&gt;" class="s3" d="m-391.29 311.41c-2.23-4.76-6.91-7.77-12.22-7.77h-87.77l21.19-88.4c1.51-6.19-1.35-12.3-7.06-15.16-5.72-2.86-12.3-1.51-16.43 3.33l-28.81 34.12q-0.83 1.2-1.9 2.39l-4.92 5.79-0.24 0.32-90.14 107.04c-3.5 4.05-4.21 9.6-1.99 14.37 2.3 4.84 6.99 7.85 12.3 7.85h84.51l-22.37 93.56c-1.51 6.27 1.34 12.38 7.06 15.24 1.98 1.03 4.12 1.5 6.19 1.5 3.81 0 7.54-1.66 10.23-4.84l41.11-48.8 0.48-0.63 14.36-16.99c0-0.08 0-0.08 0.08-0.15l74.43-88.32c3.41-4.05 4.21-9.61 1.91-14.45z"/>
						</g>
					</g>
					<path id="&lt;Path&gt;" class="s8" d="m-467.63 414.18c-0.08 0.07-0.08 0.07-0.08 0.15l-14.36 16.99-0.48 0.63-41.11 48.8c-2.69 3.18-6.42 4.84-10.23 4.84-2.07 0-4.21-0.47-6.19-1.5-5.72-2.86-8.57-8.97-7.06-15.24l22.37-93.56c0 0 101.42-13.73 57.14 38.89z"/>
					<path id="&lt;Path&gt;" class="s9" d="m-470.09 215.24l-21.19 88.4c0 0-63.72-27.3-33.01-63.72q1.07-1.19 1.9-2.39l28.81-34.12c4.13-4.84 10.71-6.19 16.43-3.33 5.71 2.86 8.57 8.97 7.06 15.16z"/>
				</g>
			</g>
		</g>
		<g id="&lt;Group&gt;">
			<g id="&lt;Group&gt;">
				<g id="&lt;Group&gt;">
					<path id="&lt;Path&gt;" class="s3" d="m-2711.86 688.18c0.08 8.89-2.06 217.98-278.61 217.98h-93.56c-276.15-3.25-272.26-217.98-272.26-217.98 28.41-0.08 58.72 3.57 86.18 10.56 57.29 14.68 130.85 50.86 173.86 93.87 6.19 6.19 11.03 14.05 17.38 19.92 4.05-23.41 1.35-50.47-6.03-72.77-8.65-26.58-25.55-48.17-46.58-65.54 0 0 123.55 22.53 140.3 114.34 0 8.18 0.55 16.27 1.9 23.97 2.38-2.22 4.52-4.68 6.67-7.22l0.23-0.32c3.42-4.21 6.67-8.57 10.48-12.38 2.3-2.3 4.68-4.6 7.22-6.9 43.64-39.92 112.44-73.09 166.64-86.97 27.46-6.99 57.77-10.64 86.18-10.56z"/>
					<path id="&lt;Path&gt;" class="s3" d="m-2710.35 531.94c-10.64 62.13-55.47 71.33-107.05 86.17l-32.77 10.16c-55.15 18.49-113.96 53.01-133.16 111.49-4.92 14.92-7.78 32.14-7.85 48.8-16.75-91.81-140.3-114.34-140.3-114.34-25.24-21.03-56.42-35.87-86.5-45.95l-32.77-10.16c-51.58-14.84-96.41-24.04-107.05-86.17-4.2-24.68 1.99-49.44 4.37-73.96l33.96-0.4c86.26-0.08 175.05 38.01 236.08 98.8 24.2 24.2 36.82 42.29 49.28 73.24h0.07c12.46-30.95 25.08-49.04 49.28-73.24 61.03-60.79 149.82-98.88 236.08-98.8l33.96 0.4c2.38 24.52 8.57 49.28 4.37 73.96z"/>
				</g>
				<g id="&lt;Group&gt;">
					<g id="&lt;Group&gt;">
						<g id="&lt;Group&gt;">
							<path id="&lt;Compound Path&gt;" class="s3" d="m-2913.42 311.41c-2.22-4.76-6.9-7.77-12.22-7.77h-87.76l21.18-88.4c1.51-6.19-1.35-12.3-7.06-15.16-5.71-2.86-12.3-1.51-16.42 3.33l-28.81 34.12q-0.83 1.2-1.9 2.39l-4.92 5.79-0.24 0.32-90.15 107.04c-3.49 4.05-4.2 9.6-1.98 14.37 2.3 4.84 6.98 7.85 12.3 7.85h84.51l-22.38 93.56c-1.51 6.27 1.35 12.38 7.06 15.24 1.99 1.03 4.13 1.5 6.19 1.5 3.81 0 7.54-1.66 10.24-4.84l41.11-48.8 0.47-0.63 14.36-16.99c0-0.08 0-0.08 0.08-0.15l74.44-88.32c3.41-4.05 4.2-9.61 1.9-14.45z"/>
						</g>
					</g>
					<path id="&lt;Path&gt;" class="s3" d="m-2989.76 414.18c-0.08 0.07-0.08 0.07-0.08 0.15l-14.36 16.99-0.47 0.63-41.11 48.8c-2.7 3.18-6.43 4.84-10.24 4.84-2.06 0-4.2-0.47-6.19-1.5-5.71-2.86-8.57-8.97-7.06-15.24l22.38-93.56c0 0 101.41-13.73 57.13 38.89z"/>
					<path id="&lt;Path&gt;" class="s3" d="m-2992.22 215.24l-21.18 88.4c0 0-63.72-27.3-33.01-63.72q1.07-1.19 1.9-2.39l28.81-34.12c4.12-4.84 10.71-6.19 16.42-3.33 5.71 2.86 8.57 8.97 7.06 15.16z"/>
				</g>
			</g>
		</g>
		<g id="&lt;Group&gt;">
			<g id="&lt;Group&gt;">
				<g id="&lt;Group&gt;">
					<path id="&lt;Path&gt;" class="s10" d="m-3552.57 688.18c0.08 8.89-2.06 217.98-278.61 217.98h-93.56c-276.15-3.25-272.26-217.98-272.26-217.98 28.41-0.08 58.72 3.57 86.18 10.56 57.29 14.68 130.85 50.86 173.86 93.87 6.19 6.19 11.03 14.05 17.38 19.92 4.05-23.41 1.35-50.47-6.03-72.77-8.65-26.58-25.55-48.17-46.58-65.54 0 0 123.55 22.53 140.3 114.34 0 8.18 0.55 16.27 1.9 23.97 2.38-2.22 4.52-4.68 6.67-7.22l0.24-0.32c3.41-4.21 6.66-8.57 10.47-12.38 2.3-2.3 4.68-4.6 7.22-6.9 43.65-39.92 112.44-73.09 166.64-86.97 27.46-6.99 57.77-10.64 86.18-10.56z"/>
					<path id="&lt;Path&gt;" class="s10" d="m-3551.06 531.94c-10.64 62.13-55.47 71.33-107.05 86.17l-32.77 10.16c-55.15 18.49-113.95 53.01-133.16 111.49-4.92 14.92-7.77 32.14-7.85 48.8-16.75-91.81-140.3-114.34-140.3-114.34-25.23-21.03-56.42-35.87-86.49-45.95l-32.78-10.16c-51.58-14.84-96.41-24.04-107.04-86.17-4.21-24.68 1.98-49.44 4.36-73.96l33.96-0.4c86.26-0.08 175.06 38.01 236.08 98.8 24.2 24.2 36.82 42.29 49.28 73.24h0.08c12.46-30.95 25.07-49.04 49.27-73.24 61.03-60.79 149.82-98.88 236.08-98.8l33.96 0.4c2.38 24.52 8.57 49.28 4.37 73.96z"/>
				</g>
				<g id="&lt;Group&gt;">
					<g id="&lt;Group&gt;">
						<g id="&lt;Group&gt;">
							<path id="&lt;Compound Path&gt;" class="s10" d="m-3754.13 311.41c-2.22-4.76-6.9-7.77-12.22-7.77h-87.76l21.19-88.4c1.5-6.19-1.35-12.3-7.07-15.16-5.71-2.86-12.3-1.51-16.42 3.33l-28.81 34.12q-0.83 1.2-1.9 2.39l-4.92 5.79-0.24 0.32-90.15 107.04c-3.49 4.05-4.2 9.6-1.98 14.37 2.3 4.84 6.98 7.85 12.3 7.85h84.51l-22.38 93.56c-1.5 6.27 1.35 12.38 7.07 15.24 1.98 1.03 4.12 1.5 6.19 1.5 3.8 0 7.53-1.66 10.23-4.84l41.11-48.8 0.47-0.63 14.37-16.99c0-0.08 0-0.08 0.08-0.15l74.43-88.32c3.41-4.05 4.2-9.61 1.9-14.45z"/>
						</g>
					</g>
					<path id="&lt;Path&gt;" class="s10" d="m-3830.46 414.18c-0.08 0.07-0.08 0.07-0.08 0.15l-14.37 16.99-0.47 0.63-41.11 48.8c-2.7 3.18-6.43 4.84-10.23 4.84-2.07 0-4.21-0.47-6.19-1.5-5.72-2.86-8.57-8.97-7.07-15.24l22.38-93.56c0 0 101.41-13.73 57.14 38.89z"/>
					<path id="&lt;Path&gt;" class="s10" d="m-3832.92 215.24l-21.19 88.4c0 0-63.72-27.3-33.01-63.72q1.07-1.19 1.9-2.39l28.81-34.12c4.12-4.84 10.71-6.19 16.42-3.33 5.72 2.86 8.57 8.97 7.07 15.16z"/>
				</g>
			</g>
		</g>
		<g id="&lt;Group&gt;">
			<g id="&lt;Group&gt;">
				<g id="&lt;Group&gt;">
					<path id="&lt;Path&gt;" class="s0" d="m-1871.15 688.18c0.08 8.89-2.07 217.98-278.61 217.98h-93.56c-276.15-3.25-272.26-217.98-272.26-217.98 28.41-0.08 58.72 3.57 86.18 10.56 57.29 14.68 130.85 50.86 173.86 93.87 6.19 6.19 11.03 14.05 17.38 19.92 4.05-23.41 1.35-50.47-6.03-72.77-8.65-26.58-25.55-48.17-46.58-65.54 0 0 123.55 22.53 140.29 114.34 0 8.18 0.56 16.27 1.91 23.97 2.38-2.22 4.52-4.68 6.66-7.22l0.24-0.32c3.41-4.21 6.67-8.57 10.48-12.38 2.3-2.3 4.68-4.6 7.22-6.9 43.64-39.92 112.44-73.09 166.64-86.97 27.46-6.99 57.77-10.64 86.18-10.56z"/>
					<path id="&lt;Path&gt;" class="s0" d="m-1869.65 531.94c-10.63 62.13-55.46 71.33-107.04 86.17l-32.78 10.16c-55.15 18.49-113.95 53.01-133.15 111.49-4.92 14.92-7.78 32.14-7.86 48.8-16.74-91.81-140.29-114.34-140.29-114.34-25.24-21.03-56.42-35.87-86.5-45.95l-32.77-10.16c-51.58-14.84-96.42-24.04-107.05-86.17-4.2-24.68 1.99-49.44 4.37-73.96l33.96-0.4c86.26-0.08 175.05 38.01 236.07 98.8 24.21 24.2 36.82 42.29 49.28 73.24h0.08c12.46-30.95 25.08-49.04 49.28-73.24 61.02-60.79 149.82-98.88 236.08-98.8l33.96 0.4c2.38 24.52 8.57 49.28 4.36 73.96z"/>
				</g>
				<g id="&lt;Group&gt;">
					<g id="&lt;Group&gt;">
						<g id="&lt;Group&gt;">
							<path id="&lt;Compound Path&gt;" class="s0" d="m-2072.71 311.41c-2.22-4.76-6.9-7.77-12.22-7.77h-87.77l21.19-88.4c1.51-6.19-1.35-12.3-7.06-15.16-5.71-2.86-12.3-1.51-16.43 3.33l-28.8 34.12q-0.84 1.2-1.91 2.39l-4.92 5.79-0.23 0.32-90.15 107.04c-3.49 4.05-4.21 9.6-1.98 14.37 2.3 4.84 6.98 7.85 12.3 7.85h84.51l-22.38 93.56c-1.51 6.27 1.35 12.38 7.06 15.24 1.99 1.03 4.13 1.5 6.19 1.5 3.81 0 7.54-1.66 10.24-4.84l41.1-48.8 0.48-0.63 14.36-16.99c0-0.08 0-0.08 0.08-0.15l74.43-88.32c3.42-4.05 4.21-9.61 1.91-14.45z"/>
						</g>
					</g>
					<path id="&lt;Path&gt;" class="s0" d="m-2149.05 414.18c-0.08 0.07-0.08 0.07-0.08 0.15l-14.36 16.99-0.48 0.63-41.1 48.8c-2.7 3.18-6.43 4.84-10.24 4.84-2.06 0-4.2-0.47-6.19-1.5-5.71-2.86-8.57-8.97-7.06-15.24l22.38-93.56c0 0 101.41-13.73 57.13 38.89z"/>
					<path id="&lt;Path&gt;" class="s0" d="m-2151.51 215.24l-21.19 88.4c0 0-63.72-27.3-33.01-63.72q1.07-1.19 1.91-2.39l28.8-34.12c4.13-4.84 10.72-6.19 16.43-3.33 5.71 2.86 8.57 8.97 7.06 15.16z"/>
				</g>
			</g>
		</g>
		<g id="&lt;Group&gt;">
			<g id="&lt;Group&gt;">
				<g id="&lt;Group&gt;">
					<path id="&lt;Path&gt;" class="s11" d="m-1030.45 688.18c0.08 8.89-2.06 217.98-278.6 217.98h-93.56c-276.15-3.25-272.26-217.98-272.26-217.98 28.41-0.08 58.72 3.57 86.18 10.56 57.29 14.68 130.85 50.86 173.86 93.87 6.19 6.19 11.03 14.05 17.38 19.92 4.04-23.41 1.34-50.47-6.03-72.77-8.65-26.58-25.56-48.17-46.59-65.54 0 0 123.56 22.53 140.3 114.34 0 8.18 0.56 16.27 1.91 23.97 2.38-2.22 4.52-4.68 6.66-7.22l0.24-0.32c3.41-4.21 6.67-8.57 10.47-12.38 2.31-2.3 4.69-4.6 7.23-6.9 43.64-39.92 112.44-73.09 166.64-86.97 27.45-6.99 57.77-10.64 86.17-10.56z"/>
					<path id="&lt;Path&gt;" class="s11" d="m-1028.94 531.94c-10.63 62.13-55.47 71.33-107.05 86.17l-32.77 10.16c-55.15 18.49-113.95 53.01-133.15 111.49-4.92 14.92-7.78 32.14-7.86 48.8-16.74-91.81-140.3-114.34-140.3-114.34-25.23-21.03-56.42-35.87-86.49-45.95l-32.77-10.16c-51.58-14.84-96.42-24.04-107.05-86.17-4.21-24.68 1.98-49.44 4.36-73.96l33.97-0.4c86.25-0.08 175.05 38.01 236.07 98.8 24.21 24.2 36.82 42.29 49.28 73.24h0.08c12.46-30.95 25.08-49.04 49.28-73.24 61.02-60.79 149.82-98.88 236.07-98.8l33.97 0.4c2.38 24.52 8.57 49.28 4.36 73.96z"/>
				</g>
				<g id="&lt;Group&gt;">
					<g id="&lt;Group&gt;">
						<g id="&lt;Group&gt;">
							<path id="&lt;Compound Path&gt;" class="s11" d="m-1232 311.41c-2.22-4.76-6.91-7.77-12.22-7.77h-87.77l21.19-88.4c1.51-6.19-1.35-12.3-7.06-15.16-5.72-2.86-12.3-1.51-16.43 3.33l-28.8 34.12q-0.84 1.2-1.91 2.39l-4.92 5.79-0.24 0.32-90.14 107.04c-3.49 4.05-4.21 9.6-1.99 14.37 2.31 4.84 6.99 7.85 12.3 7.85h84.52l-22.38 93.56c-1.51 6.27 1.35 12.38 7.06 15.24 1.98 1.03 4.13 1.5 6.19 1.5 3.81 0 7.54-1.66 10.24-4.84l41.1-48.8 0.48-0.63 14.36-16.99c0-0.08 0-0.08 0.08-0.15l74.43-88.32c3.42-4.05 4.21-9.61 1.91-14.45z"/>
						</g>
					</g>
					<path id="&lt;Path&gt;" class="s11" d="m-1308.34 414.18c-0.08 0.07-0.08 0.07-0.08 0.15l-14.36 16.99-0.48 0.63-41.1 48.8c-2.7 3.18-6.43 4.84-10.24 4.84-2.06 0-4.21-0.47-6.19-1.5-5.71-2.86-8.57-8.97-7.06-15.24l22.38-93.56c0 0 101.41-13.73 57.13 38.89z"/>
					<path id="&lt;Path&gt;" class="s11" d="m-1310.8 215.24l-21.19 88.4c0 0-63.72-27.3-33.01-63.72q1.07-1.19 1.91-2.39l28.8-34.12c4.13-4.84 10.71-6.19 16.43-3.33 5.71 2.86 8.57 8.97 7.06 15.16z"/>
				</g>
			</g>
		</g>
		<g id="&lt;Group&gt;">
			<path id="&lt;Compound Path&gt;" class="s0" d="m1482.22 868.57v11.37h-44.7v-67.92h13.02v56.55z"/>
			<path id="&lt;Compound Path&gt;" class="s0" d="m1496.79 824.36q-1.27 0.49-2.43 0.49-1.85 0-3.45-1.02-1.6-1.02-2.38-2.87-1.07-2.43-0.05-4.81 1.02-2.38 3.45-3.45 1.26-0.49 2.43-0.49 1.94 0 3.5 1.02 1.55 1.03 2.33 2.87 1.07 2.43 0.05 4.86-1.02 2.43-3.45 3.4zm-8.75 55.58v-49.17h12.44v49.17z"/>
			<path id="&lt;Compound Path&gt;" class="s0" d="m1542.85 824.36q-1.27 0.49-2.43 0.49-1.85 0-3.45-1.02-1.6-1.02-2.38-2.87-1.07-2.43-0.05-4.81 1.02-2.38 3.45-3.45 1.26-0.49 2.43-0.49 1.94 0 3.5 1.02 1.55 1.03 2.33 2.87 1.07 2.43 0.05 4.86-1.02 2.43-3.45 3.4zm-8.75 55.58v-49.17h12.44v49.17z"/>
			<path id="&lt;Compound Path&gt;" class="s0" d="m1604.74 812.02v43.53q0 5.15-1.94 9.67-1.94 4.52-5.34 7.92-3.41 3.4-7.92 5.34-4.52 1.95-9.67 1.95-5.15 0-9.72-1.95-4.57-1.94-7.97-5.34-3.4-3.4-5.34-7.92-1.94-4.52-1.94-9.67 0-6.31 1.94-11.03 1.94-4.71 5.05-7.82 3.11-3.11 7.14-4.66 4.04-1.56 8.12-1.56 4.27 0 8.21 1.61 3.93 1.6 6.95 4.81v-24.88zm-24.88 57.04q2.53 0 4.81-1.07 2.28-1.07 3.99-2.87 1.69-1.79 2.67-4.27 0.97-2.48 0.97-5.3 0-2.82-0.97-5.29-0.98-2.48-2.67-4.33-1.71-1.84-3.99-2.91-2.28-1.07-4.81-1.07-2.62 0-4.91 1.07-2.28 1.07-3.98 2.91-1.7 1.85-2.67 4.33-0.97 2.47-0.97 5.29 0 2.82 0.97 5.3 0.97 2.48 2.67 4.27 1.7 1.8 3.98 2.87 2.29 1.07 4.91 1.07z"/>
			<path id="&lt;Compound Path&gt;" class="s0" d="m1624.47 858.08q0.49 2.72 1.7 4.71 1.21 1.99 2.96 3.31 1.75 1.31 3.89 1.94 2.14 0.63 4.28 0.63 3.69 0 7.04-1.85 3.35-1.84 4.81-5.54l11.86 1.66q-1.17 4.47-3.55 7.72-2.38 3.26-5.49 5.44-3.11 2.19-6.85 3.26-3.74 1.07-7.53 1.07-4.76 0-9.38-1.61-4.61-1.6-8.26-4.81-3.64-3.2-5.88-7.87-2.23-4.66-2.23-10.78 0-6.12 2.09-10.74 2.09-4.61 5.54-7.77 3.44-3.16 7.87-4.76 4.42-1.61 8.98-1.61 4.57 0 8.9 1.61 4.32 1.6 7.77 4.81 3.45 3.2 5.64 8.11 2.18 4.91 2.38 11.61v1.46zm23.03-9.23q-1.46-3.6-4.47-5.4-3.02-1.79-6.42-1.79-3.4 0-6.41 1.79-3.01 1.8-4.67 5.4z"/>
			<path id="&lt;Compound Path&gt;" class="s0" d="m1716.88 855.36v21.28q0 1.55-1.07 2.62-1.07 1.07-2.63 1.07-1.65 0-2.81-1.46l-4.96-6.22q-3.01 3.79-7.24 5.74-4.22 1.94-8.89 1.94-4.08 0-8.11-1.55-4.04-1.56-7.14-4.67-3.11-3.11-5.06-7.82-1.94-4.71-1.94-11.03 0-5.15 1.94-9.72 1.95-4.56 5.35-7.92 3.4-3.35 7.97-5.29 4.56-1.94 9.71-1.95 5.15 0.01 9.67 1.95 4.52 1.94 7.92 5.34 3.4 3.4 5.34 7.92 1.95 4.52 1.95 9.77zm-12.44-0.1q0-2.82-0.97-5.3-0.97-2.47-2.67-4.32-1.7-1.84-3.99-2.91-2.28-1.07-4.81-1.07-2.62 0-4.91 1.07-2.28 1.07-3.98 2.91-1.7 1.85-2.67 4.32-0.97 2.48-0.97 5.3 0 2.82 0.97 5.3 0.97 2.47 2.67 4.32 1.7 1.85 3.98 2.92 2.29 1.07 4.91 1.06 2.53 0.01 4.81-1.06 2.29-1.07 3.94-2.87 1.65-1.8 2.67-4.28 1.02-2.47 1.02-5.29z"/>
			<g id="&lt;Group&gt;">
				<g id="&lt;Group&gt;">
					<path id="&lt;Path&gt;" class="s0" d="m1513.39 879.94h-0.84c-0.67 0-1.21-0.54-1.21-1.21v-8.3c0-0.67 0.54-1.21 1.21-1.21h0.84c0.67 0 1.21 0.54 1.21 1.21v8.3c0 0.67-0.54 1.21-1.21 1.21z"/>
					<path id="&lt;Path&gt;" class="s0" d="m1523.29 865.45v12.86c0 0.9-0.73 1.63-1.63 1.63-0.9 0-1.63-0.73-1.63-1.63v-9.61c0-0.9-0.73-1.62-1.63-1.62h-1.16c-3.26 0-5.9-2.65-5.9-5.91v-8.48c0-0.9 0.72-1.63 1.62-1.63 0.9 0 1.63 0.73 1.63 1.63v8.49c0 1.46 1.18 2.64 2.64 2.64h4.43c0.9 0 1.63 0.73 1.63 1.63z"/>
					<path id="&lt;Path&gt;" class="s0" d="m1522.06 859.06h-0.85c-0.66 0-1.2-0.54-1.2-1.2v-13.6c0-0.67 0.54-1.21 1.2-1.21h0.85c0.66 0 1.2 0.54 1.2 1.21v13.6c0 0.66-0.54 1.2-1.2 1.2z"/>
				</g>
				<g id="&lt;Group&gt;">
					<path id="&lt;Path&gt;" class="s0" d="m1521.23 812.02h0.84c0.67 0 1.21 0.54 1.21 1.21v8.31c0 0.66-0.54 1.2-1.21 1.2h-0.84c-0.66 0-1.2-0.54-1.2-1.2v-8.31c0-0.67 0.54-1.21 1.2-1.21z"/>
					<path id="&lt;Path&gt;" class="s0" d="m1511.34 822.22v-8.57c0-0.9 0.72-1.63 1.62-1.63 0.9 0 1.63 0.73 1.63 1.63v8.61c0 1.45 1.18 2.63 2.63 2.63h4.44c0.9 0 1.63 0.72 1.63 1.62v12.76c0 0.9-0.73 1.63-1.63 1.63-0.9 0-1.63-0.73-1.63-1.63v-9.5c0-0.9-0.73-1.63-1.63-1.63h-1.14c-3.27 0-5.92-2.65-5.92-5.92z"/>
					<path id="&lt;Path&gt;" class="s0" d="m1512.57 832.9h0.84c0.66 0 1.2 0.54 1.2 1.2v13.6c0 0.67-0.54 1.21-1.2 1.21h-0.84c-0.67 0-1.21-0.54-1.21-1.21v-13.6c0-0.66 0.54-1.2 1.21-1.2z"/>
				</g>
			</g>
			<g id="&lt;Group&gt;">
				<g id="&lt;Group&gt;">
					<path id="&lt;Path&gt;" class="s0" d="m1402.67 865.5c0.01 1.27-0.3 31.32-40.04 31.32h-13.44c-39.68-0.47-39.13-31.32-39.13-31.32 4.09-0.02 8.44 0.51 12.39 1.51 8.23 2.11 18.8 7.31 24.98 13.49 0.89 0.89 1.59 2.02 2.5 2.86 0.58-3.36 0.19-7.25-0.87-10.45-1.24-3.82-3.67-6.92-6.69-9.42 0 0 17.75 3.24 20.16 16.43q-0.01 1.77 0.27 3.44 0.51-0.48 0.96-1.03l0.04-0.05c0.49-0.6 0.95-1.23 1.5-1.78q0.49-0.49 1.04-0.99c6.27-5.74 16.16-10.5 23.95-12.5 3.94-1 8.3-1.53 12.38-1.51z"/>
					<path id="&lt;Path&gt;" class="s0" d="m1402.89 843.04c-1.53 8.93-7.97 10.25-15.39 12.39l-4.71 1.46c-7.92 2.65-16.37 7.61-19.13 16.02-0.71 2.14-1.12 4.62-1.13 7.01-2.41-13.19-20.16-16.43-20.16-16.43-3.63-3.02-8.11-5.16-12.43-6.6l-4.71-1.46c-7.41-2.14-13.85-3.46-15.38-12.39-0.61-3.54 0.28-7.1 0.62-10.63l4.89-0.05c12.39-0.01 25.15 5.46 33.92 14.19 3.48 3.48 5.29 6.08 7.08 10.53h0.01c1.79-4.45 3.61-7.05 7.08-10.53 8.77-8.73 21.53-14.2 33.93-14.19l4.88 0.05c0.34 3.53 1.23 7.09 0.63 10.63z"/>
				</g>
				<g id="&lt;Group&gt;">
					<g id="&lt;Group&gt;">
						<g id="&lt;Group&gt;">
							<path id="&lt;Compound Path&gt;" class="s0" d="m1373.71 811.35c-0.32-0.68-1-1.11-1.76-1.11h-12.61l3.04-12.71c0.22-0.89-0.19-1.77-1.01-2.18-0.82-0.41-1.77-0.21-2.36 0.48l-4.14 4.91q-0.12 0.17-0.28 0.34l-0.7 0.83-0.04 0.05-12.95 15.38c-0.5 0.58-0.61 1.38-0.29 2.06 0.33 0.7 1.01 1.13 1.77 1.13h12.15l-3.22 13.45c-0.22 0.9 0.19 1.78 1.01 2.19q0.44 0.22 0.89 0.21c0.55 0 1.09-0.24 1.48-0.69l5.9-7.02 0.07-0.09 2.06-2.44q0-0.01 0.02-0.02l10.69-12.69c0.49-0.58 0.61-1.38 0.28-2.08z"/>
						</g>
					</g>
					<path id="&lt;Path&gt;" class="s0" d="m1362.74 826.12q-0.02 0.01-0.02 0.02l-2.06 2.44-0.07 0.09-5.9 7.02c-0.39 0.45-0.93 0.69-1.48 0.69q-0.45 0.01-0.89-0.21c-0.82-0.41-1.23-1.29-1.01-2.19l3.22-13.45c0 0 14.57-1.97 8.21 5.59z"/>
					<path id="&lt;Path&gt;" class="s0" d="m1362.38 797.53l-3.04 12.71c0 0-9.16-3.93-4.75-9.16q0.16-0.17 0.28-0.34l4.14-4.91c0.59-0.69 1.54-0.89 2.36-0.48 0.82 0.41 1.23 1.29 1.01 2.18z"/>
				</g>
			</g>
		</g>
		<g id="&lt;Group&gt;">
			<path id="&lt;Compound Path&gt;" class="s11" d="m1488.22 597.77v11.37h-44.7v-67.93h13.02v56.56z"/>
			<path id="&lt;Compound Path&gt;" class="s11" d="m1502.79 553.55q-1.27 0.49-2.43 0.49-1.85 0-3.45-1.02-1.6-1.02-2.38-2.87-1.07-2.42-0.05-4.81 1.02-2.38 3.45-3.45 1.26-0.48 2.43-0.48 1.94 0 3.5 1.02 1.55 1.02 2.33 2.86 1.07 2.44 0.05 4.86-1.02 2.43-3.45 3.4zm-8.75 55.59v-49.17h12.44v49.17z"/>
			<path id="&lt;Compound Path&gt;" class="s11" d="m1548.85 553.55q-1.27 0.49-2.43 0.49-1.85 0-3.45-1.02-1.6-1.02-2.38-2.87-1.07-2.42-0.05-4.81 1.02-2.38 3.45-3.45 1.26-0.48 2.43-0.48 1.94 0 3.5 1.02 1.55 1.02 2.33 2.86 1.07 2.44 0.05 4.86-1.02 2.43-3.45 3.4zm-8.75 55.59v-49.17h12.44v49.17z"/>
			<path id="&lt;Compound Path&gt;" class="s11" d="m1610.74 541.21v43.54q0 5.15-1.94 9.66-1.94 4.52-5.34 7.92-3.41 3.41-7.92 5.35-4.52 1.94-9.67 1.94-5.15 0-9.72-1.94-4.57-1.94-7.97-5.35-3.4-3.4-5.34-7.92-1.94-4.51-1.94-9.66 0-6.32 1.94-11.03 1.94-4.71 5.05-7.82 3.11-3.11 7.14-4.67 4.04-1.55 8.12-1.55 4.27 0 8.21 1.6 3.93 1.6 6.95 4.81v-24.88zm-24.88 57.04q2.53 0 4.81-1.07 2.28-1.06 3.99-2.86 1.69-1.8 2.67-4.28 0.97-2.48 0.97-5.29 0-2.82-0.97-5.3-0.98-2.48-2.67-4.32-1.71-1.85-3.99-2.92-2.28-1.07-4.81-1.07-2.62 0-4.91 1.07-2.28 1.07-3.98 2.92-1.7 1.84-2.67 4.32-0.97 2.48-0.97 5.3 0 2.81 0.97 5.29 0.97 2.48 2.67 4.28 1.7 1.8 3.98 2.86 2.29 1.07 4.91 1.07z"/>
			<path id="&lt;Compound Path&gt;" class="s11" d="m1630.47 587.27q0.49 2.72 1.7 4.72 1.21 1.99 2.96 3.3 1.75 1.31 3.89 1.94 2.14 0.63 4.28 0.63 3.69 0 7.04-1.84 3.35-1.85 4.81-5.54l11.86 1.65q-1.17 4.47-3.55 7.73-2.38 3.25-5.49 5.44-3.11 2.18-6.85 3.25-3.74 1.07-7.53 1.07-4.76 0-9.38-1.6-4.61-1.61-8.26-4.81-3.64-3.21-5.88-7.87-2.23-4.67-2.23-10.79 0-6.12 2.09-10.74 2.09-4.61 5.54-7.77 3.44-3.16 7.87-4.76 4.42-1.6 8.98-1.6 4.57 0 8.9 1.6 4.32 1.6 7.77 4.81 3.45 3.21 5.64 8.11 2.18 4.91 2.38 11.62v1.45zm23.03-9.23q-1.46-3.59-4.47-5.39-3.02-1.8-6.42-1.8-3.4 0-6.41 1.8-3.01 1.8-4.67 5.39z"/>
			<path id="&lt;Compound Path&gt;" class="s11" d="m1722.88 584.55v21.28q0 1.56-1.07 2.63-1.07 1.06-2.63 1.06-1.65 0-2.81-1.45l-4.96-6.22q-3.01 3.79-7.24 5.73-4.22 1.94-8.89 1.94-4.08 0-8.11-1.55-4.04-1.55-7.14-4.66-3.11-3.11-5.06-7.83-1.94-4.71-1.94-11.03 0-5.14 1.94-9.71 1.95-4.57 5.35-7.92 3.4-3.35 7.97-5.3 4.56-1.94 9.71-1.94 5.15 0 9.67 1.94 4.52 1.95 7.92 5.35 3.4 3.4 5.34 7.92 1.95 4.51 1.95 9.76zm-12.44-0.1q0-2.81-0.97-5.29-0.97-2.48-2.67-4.33-1.7-1.84-3.99-2.91-2.28-1.07-4.81-1.07-2.62 0-4.91 1.07-2.28 1.07-3.98 2.91-1.7 1.85-2.67 4.33-0.97 2.48-0.97 5.29 0 2.82 0.97 5.3 0.97 2.48 2.67 4.32 1.7 1.85 3.98 2.92 2.29 1.07 4.91 1.07 2.53 0 4.81-1.07 2.29-1.07 3.94-2.87 1.65-1.79 2.67-4.27 1.02-2.48 1.02-5.3z"/>
			<g id="&lt;Group&gt;">
				<g id="&lt;Group&gt;">
					<path id="&lt;Path&gt;" class="s11" d="m1519.39 609.13h-0.84c-0.67 0-1.21-0.54-1.21-1.2v-8.31c0-0.67 0.54-1.21 1.21-1.21h0.84c0.67 0 1.21 0.54 1.21 1.21v8.31c0 0.66-0.54 1.2-1.21 1.2z"/>
					<path id="&lt;Path&gt;" class="s11" d="m1529.29 594.64v12.87c0 0.9-0.73 1.63-1.63 1.63-0.9 0-1.63-0.73-1.63-1.63v-9.61c0-0.9-0.73-1.63-1.63-1.63h-1.16c-3.26 0-5.9-2.64-5.9-5.91v-8.48c0-0.9 0.72-1.63 1.62-1.63 0.9 0 1.63 0.73 1.63 1.63v8.5c0 1.45 1.18 2.64 2.64 2.64h4.43c0.9 0 1.63 0.72 1.63 1.62z"/>
					<path id="&lt;Path&gt;" class="s11" d="m1528.06 588.26h-0.85c-0.66 0-1.2-0.54-1.2-1.21v-13.6c0-0.66 0.54-1.2 1.2-1.2h0.85c0.66 0 1.2 0.54 1.2 1.2v13.6c0 0.67-0.54 1.21-1.2 1.21z"/>
				</g>
				<g id="&lt;Group&gt;">
					<path id="&lt;Path&gt;" class="s11" d="m1527.23 541.21h0.84c0.67 0 1.21 0.54 1.21 1.21v8.31c0 0.67-0.54 1.21-1.21 1.21h-0.84c-0.66 0-1.2-0.54-1.2-1.21v-8.31c0-0.67 0.54-1.21 1.2-1.21z"/>
					<path id="&lt;Path&gt;" class="s11" d="m1517.34 551.41v-8.57c0-0.9 0.72-1.63 1.62-1.63 0.9 0 1.63 0.73 1.63 1.63v8.61c0 1.45 1.18 2.63 2.63 2.63h4.44c0.9 0 1.63 0.73 1.63 1.63v12.76c0 0.9-0.73 1.63-1.63 1.63-0.9 0-1.63-0.73-1.63-1.63v-9.51c0-0.9-0.73-1.63-1.63-1.63h-1.14c-3.27 0-5.92-2.65-5.92-5.92z"/>
					<path id="&lt;Path&gt;" class="s11" d="m1518.57 562.09h0.84c0.66 0 1.2 0.54 1.2 1.21v13.6c0 0.66-0.54 1.2-1.2 1.2h-0.84c-0.67 0-1.21-0.54-1.21-1.2v-13.6c0-0.67 0.54-1.21 1.21-1.21z"/>
				</g>
			</g>
			<g id="&lt;Group&gt;">
				<g id="&lt;Group&gt;">
					<path id="&lt;Path&gt;" class="s12" d="m1408.67 594.69c0.01 1.28-0.3 31.32-40.04 31.32h-13.44c-39.68-0.46-39.13-31.32-39.13-31.32 4.09-0.01 8.44 0.51 12.39 1.52 8.23 2.11 18.8 7.31 24.98 13.49 0.89 0.89 1.59 2.02 2.5 2.86 0.58-3.37 0.19-7.25-0.87-10.46-1.24-3.82-3.67-6.92-6.69-9.42 0 0 17.75 3.24 20.16 16.44q-0.01 1.77 0.27 3.44 0.51-0.49 0.96-1.04l0.04-0.04c0.49-0.61 0.95-1.24 1.5-1.78q0.49-0.5 1.04-1c6.27-5.73 16.16-10.5 23.95-12.49 3.94-1.01 8.3-1.53 12.38-1.52z"/>
					<path id="&lt;Path&gt;" class="s13" d="m1408.89 572.24c-1.53 8.93-7.97 10.25-15.39 12.38l-4.71 1.46c-7.92 2.66-16.37 7.62-19.13 16.02-0.71 2.15-1.12 4.62-1.13 7.02-2.41-13.2-20.16-16.44-20.16-16.44-3.63-3.02-8.11-5.15-12.43-6.6l-4.71-1.46c-7.41-2.13-13.85-3.45-15.38-12.38-0.61-3.55 0.28-7.11 0.62-10.63l4.89-0.06c12.39-0.01 25.15 5.46 33.92 14.2 3.48 3.48 5.29 6.08 7.08 10.52h0.01c1.79-4.44 3.61-7.04 7.08-10.52 8.77-8.74 21.53-14.21 33.93-14.2l4.88 0.06c0.34 3.52 1.23 7.08 0.63 10.63z"/>
				</g>
				<g id="&lt;Group&gt;">
					<g id="&lt;Group&gt;">
						<g id="&lt;Group&gt;">
							<path id="&lt;Compound Path&gt;" class="s3" d="m1379.71 540.55c-0.32-0.69-1-1.12-1.76-1.12h-12.61l3.04-12.7c0.22-0.89-0.19-1.77-1.01-2.18-0.82-0.41-1.77-0.22-2.36 0.48l-4.14 4.9q-0.12 0.17-0.28 0.34l-0.7 0.83-0.04 0.05-12.95 15.38c-0.5 0.59-0.61 1.38-0.29 2.07 0.33 0.69 1.01 1.13 1.77 1.13h12.15l-3.22 13.44c-0.22 0.9 0.19 1.78 1.01 2.19q0.44 0.22 0.89 0.22c0.55 0 1.09-0.24 1.48-0.7l5.9-7.01 0.07-0.09 2.06-2.44q0-0.01 0.02-0.03l10.69-12.69c0.49-0.58 0.61-1.38 0.28-2.07z"/>
						</g>
					</g>
					<path id="&lt;Path&gt;" class="s14" d="m1368.74 555.31q-0.02 0.02-0.02 0.03l-2.06 2.44-0.07 0.09-5.9 7.01c-0.39 0.46-0.93 0.7-1.48 0.7q-0.45 0-0.89-0.22c-0.82-0.41-1.23-1.29-1.01-2.19l3.22-13.44c0 0 14.57-1.98 8.21 5.58z"/>
					<path id="&lt;Path&gt;" class="s15" d="m1368.38 526.73l-3.04 12.7c0 0-9.16-3.92-4.75-9.16q0.16-0.17 0.28-0.34l4.14-4.9c0.59-0.7 1.54-0.89 2.36-0.48 0.82 0.41 1.23 1.29 1.01 2.18z"/>
				</g>
			</g>
		</g>
		<g id="&lt;Group&gt;">
			<path id="&lt;Compound Path&gt;" class="s11" d="m1482.22 733.67v11.37h-44.7v-67.92h13.02v56.55z"/>
			<path id="&lt;Compound Path&gt;" class="s11" d="m1496.79 689.46q-1.27 0.48-2.43 0.48-1.85 0-3.45-1.02-1.6-1.02-2.38-2.86-1.07-2.43-0.05-4.81 1.02-2.38 3.45-3.45 1.26-0.49 2.43-0.49 1.94 0 3.5 1.02 1.55 1.02 2.33 2.87 1.07 2.43 0.05 4.86-1.02 2.43-3.45 3.4zm-8.75 55.58v-49.17h12.44v49.17z"/>
			<path id="&lt;Compound Path&gt;" class="s11" d="m1542.85 689.46q-1.27 0.48-2.43 0.48-1.85 0-3.45-1.02-1.6-1.02-2.38-2.86-1.07-2.43-0.05-4.81 1.02-2.38 3.45-3.45 1.26-0.49 2.43-0.49 1.94 0 3.5 1.02 1.55 1.02 2.33 2.87 1.07 2.43 0.05 4.86-1.02 2.43-3.45 3.4zm-8.75 55.58v-49.17h12.44v49.17z"/>
			<path id="&lt;Compound Path&gt;" class="s11" d="m1604.74 677.12v43.53q0 5.15-1.94 9.67-1.94 4.52-5.34 7.92-3.41 3.4-7.92 5.34-4.52 1.95-9.67 1.94-5.15 0.01-9.72-1.94-4.57-1.94-7.97-5.34-3.4-3.4-5.34-7.92-1.94-4.52-1.94-9.67 0-6.32 1.94-11.03 1.94-4.71 5.05-7.82 3.11-3.11 7.14-4.67 4.04-1.55 8.12-1.55 4.27 0 8.21 1.6 3.93 1.61 6.95 4.81v-24.87zm-24.88 57.04q2.53 0 4.81-1.07 2.28-1.07 3.99-2.87 1.69-1.8 2.67-4.28 0.97-2.47 0.97-5.29 0-2.82-0.97-5.3-0.98-2.47-2.67-4.32-1.71-1.85-3.99-2.92-2.28-1.06-4.81-1.06-2.62 0-4.91 1.06-2.28 1.07-3.98 2.92-1.7 1.85-2.67 4.32-0.97 2.48-0.97 5.3 0 2.82 0.97 5.29 0.97 2.48 2.67 4.28 1.7 1.8 3.98 2.87 2.29 1.07 4.91 1.07z"/>
			<path id="&lt;Compound Path&gt;" class="s11" d="m1624.47 723.18q0.49 2.72 1.7 4.71 1.21 1.99 2.96 3.3 1.75 1.31 3.89 1.95 2.14 0.63 4.28 0.63 3.69 0 7.04-1.85 3.35-1.84 4.81-5.54l11.86 1.65q-1.17 4.47-3.55 7.73-2.38 3.26-5.49 5.44-3.11 2.19-6.85 3.26-3.74 1.06-7.53 1.06-4.76 0-9.38-1.6-4.61-1.6-8.26-4.81-3.64-3.21-5.88-7.87-2.23-4.66-2.23-10.79 0-6.12 2.09-10.73 2.09-4.62 5.54-7.78 3.44-3.15 7.87-4.76 4.42-1.6 8.98-1.6 4.57 0 8.9 1.6 4.32 1.61 7.77 4.81 3.45 3.21 5.64 8.12 2.18 4.9 2.38 11.61v1.46zm23.03-9.24q-1.46-3.59-4.47-5.39-3.02-1.8-6.42-1.8-3.4 0-6.41 1.8-3.01 1.8-4.67 5.39z"/>
			<path id="&lt;Compound Path&gt;" class="s11" d="m1716.88 720.45v21.28q0 1.56-1.07 2.63-1.07 1.07-2.63 1.07-1.65 0-2.81-1.46l-4.96-6.22q-3.01 3.79-7.24 5.73-4.22 1.95-8.89 1.95-4.08 0-8.11-1.56-4.04-1.55-7.14-4.66-3.11-3.11-5.06-7.82-1.94-4.72-1.94-11.03 0-5.15 1.94-9.72 1.95-4.57 5.35-7.92 3.4-3.35 7.97-5.29 4.56-1.95 9.71-1.95 5.15 0 9.67 1.95 4.52 1.94 7.92 5.34 3.4 3.4 5.34 7.92 1.95 4.52 1.95 9.76zm-12.44-0.09q0-2.82-0.97-5.3-0.97-2.48-2.67-4.32-1.7-1.85-3.99-2.92-2.28-1.07-4.81-1.07-2.62 0-4.91 1.07-2.28 1.07-3.98 2.92-1.7 1.84-2.67 4.32-0.97 2.48-0.97 5.3 0 2.82 0.97 5.29 0.97 2.48 2.67 4.33 1.7 1.84 3.98 2.91 2.29 1.07 4.91 1.07 2.53 0 4.81-1.07 2.29-1.07 3.94-2.86 1.65-1.8 2.67-4.28 1.02-2.48 1.02-5.3z"/>
			<g id="&lt;Group&gt;">
				<g id="&lt;Group&gt;">
					<path id="&lt;Path&gt;" class="s11" d="m1513.39 745.04h-0.84c-0.67 0-1.21-0.54-1.21-1.21v-8.31c0-0.66 0.54-1.2 1.21-1.2h0.84c0.67 0 1.21 0.54 1.21 1.2v8.31c0 0.67-0.54 1.21-1.21 1.21z"/>
					<path id="&lt;Path&gt;" class="s11" d="m1523.29 730.55v12.86c0 0.9-0.73 1.63-1.63 1.63-0.9 0-1.63-0.73-1.63-1.63v-9.61c0-0.9-0.73-1.63-1.63-1.63h-1.16c-3.26 0-5.9-2.64-5.9-5.9v-8.49c0-0.89 0.72-1.62 1.62-1.62 0.9 0 1.63 0.73 1.63 1.62v8.5c0 1.46 1.18 2.64 2.64 2.64h4.43c0.9 0 1.63 0.73 1.63 1.63z"/>
					<path id="&lt;Path&gt;" class="s11" d="m1522.06 724.16h-0.85c-0.66 0-1.2-0.54-1.2-1.2v-13.6c0-0.67 0.54-1.21 1.2-1.21h0.85c0.66 0 1.2 0.54 1.2 1.21v13.6c0 0.66-0.54 1.2-1.2 1.2z"/>
				</g>
				<g id="&lt;Group&gt;">
					<path id="&lt;Path&gt;" class="s11" d="m1521.23 677.12h0.84c0.67 0 1.21 0.54 1.21 1.2v8.31c0 0.67-0.54 1.21-1.21 1.21h-0.84c-0.66 0-1.2-0.54-1.2-1.21v-8.31c0-0.66 0.54-1.2 1.2-1.2z"/>
					<path id="&lt;Path&gt;" class="s11" d="m1511.34 687.31v-8.57c0-0.89 0.72-1.62 1.62-1.62 0.9 0 1.63 0.73 1.63 1.62v8.61c0 1.46 1.18 2.63 2.63 2.63h4.44c0.9 0 1.63 0.73 1.63 1.63v12.76c0 0.9-0.73 1.63-1.63 1.63-0.9 0-1.63-0.73-1.63-1.63v-9.51c0-0.89-0.73-1.62-1.63-1.62h-1.14c-3.27 0-5.92-2.65-5.92-5.93z"/>
					<path id="&lt;Path&gt;" class="s11" d="m1512.57 697.99h0.84c0.66 0 1.2 0.54 1.2 1.21v13.6c0 0.66-0.54 1.2-1.2 1.2h-0.84c-0.67 0-1.21-0.54-1.21-1.2v-13.6c0-0.67 0.54-1.21 1.21-1.21z"/>
				</g>
			</g>
			<g id="&lt;Group&gt;">
				<g id="&lt;Group&gt;">
					<path id="&lt;Path&gt;" class="s11" d="m1402.67 730.59c0.01 1.28-0.3 31.33-40.04 31.33h-13.44c-39.68-0.47-39.13-31.33-39.13-31.33 4.09-0.01 8.44 0.52 12.39 1.52 8.23 2.11 18.8 7.31 24.98 13.49 0.89 0.89 1.59 2.02 2.5 2.86 0.58-3.36 0.19-7.25-0.87-10.45-1.24-3.83-3.67-6.93-6.69-9.42 0 0 17.75 3.23 20.16 16.43q-0.01 1.77 0.27 3.44 0.51-0.48 0.96-1.04l0.04-0.04c0.49-0.61 0.95-1.23 1.5-1.78q0.49-0.5 1.04-0.99c6.27-5.74 16.16-10.5 23.95-12.5 3.94-1 8.3-1.53 12.38-1.52z"/>
					<path id="&lt;Path&gt;" class="s11" d="m1402.89 708.14c-1.53 8.93-7.97 10.25-15.39 12.38l-4.71 1.46c-7.92 2.66-16.37 7.62-19.13 16.03-0.71 2.14-1.12 4.61-1.13 7.01-2.41-13.2-20.16-16.43-20.16-16.43-3.63-3.03-8.11-5.16-12.43-6.61l-4.71-1.46c-7.41-2.13-13.85-3.45-15.38-12.38-0.61-3.55 0.28-7.1 0.62-10.63l4.89-0.06c12.39-0.01 25.15 5.47 33.92 14.2 3.48 3.48 5.29 6.08 7.08 10.53h0.01c1.79-4.45 3.61-7.05 7.08-10.53 8.77-8.73 21.53-14.21 33.93-14.2l4.88 0.06c0.34 3.53 1.23 7.08 0.63 10.63z"/>
				</g>
				<g id="&lt;Group&gt;">
					<g id="&lt;Group&gt;">
						<g id="&lt;Group&gt;">
							<path id="&lt;Compound Path&gt;" class="s11" d="m1373.71 676.45c-0.32-0.68-1-1.12-1.76-1.12h-12.61l3.04-12.7c0.22-0.89-0.19-1.77-1.01-2.18-0.82-0.41-1.77-0.22-2.36 0.48l-4.14 4.9q-0.12 0.17-0.28 0.35l-0.7 0.83-0.04 0.04-12.95 15.39c-0.5 0.58-0.61 1.38-0.29 2.06 0.33 0.7 1.01 1.13 1.77 1.13h12.15l-3.22 13.44c-0.22 0.9 0.19 1.78 1.01 2.19q0.44 0.22 0.89 0.22c0.55 0 1.09-0.24 1.48-0.7l5.9-7.01 0.07-0.09 2.06-2.44q0-0.01 0.02-0.02l10.69-12.69c0.49-0.59 0.61-1.38 0.28-2.08z"/>
						</g>
					</g>
					<path id="&lt;Path&gt;" class="s11" d="m1362.74 691.22q-0.02 0.01-0.02 0.02l-2.06 2.44-0.07 0.09-5.9 7.01c-0.39 0.46-0.93 0.7-1.48 0.7q-0.45 0-0.89-0.22c-0.82-0.41-1.23-1.29-1.01-2.19l3.22-13.44c0 0 14.57-1.97 8.21 5.59z"/>
					<path id="&lt;Path&gt;" class="s11" d="m1362.38 662.63l-3.04 12.7c0 0-9.16-3.92-4.75-9.15q0.16-0.18 0.28-0.35l4.14-4.9c0.59-0.7 1.54-0.89 2.36-0.48 0.82 0.41 1.23 1.29 1.01 2.18z"/>
				</g>
			</g>
		</g>
		<path id="&lt;Path&gt;" class="s10" d="m134.31 1279.01h-143.44v-143.43h143.44z"/>
		<path id="&lt;Path&gt;" class="s3" d="m299.2 1279.01h-143.43v-143.43h143.43z"/>
		<path id="&lt;Path&gt;" class="s0" d="m464.1 1279.01h-143.44v-143.43h143.44z"/>
		<path id="&lt;Path&gt;" class="s11" d="m628.99 1279.01h-143.44v-143.43h143.44z"/>
	</g>
</svg>